<svg width="12" height="12" viewBox="0 0 12 12" fill="none" xmlns="http://www.w3.org/2000/svg">
<path d="M4.125 1.375V1.37891C5.041 1.4105 5.91319 1.78624 6.56348 2.43652C7.21377 3.08682 7.59049 3.95898 7.62207 4.875H7.625V8.49219L9.05859 7.05859L9.14648 6.96973L10.0303 7.85352L9.94141 7.94141L7.5293 10.3525L7.53027 10.3535L7.44141 10.4414L7.35352 10.5303L7.35254 10.5293L7.08887 10.7949L7 10.8838L6.91113 10.7949L6.64648 10.5293V10.5303L6.55859 10.4414L6.46973 10.3535V10.3525L4.05859 7.94141L3.96973 7.85352L4.85352 6.96973L4.94141 7.05859L6.375 8.49219V5C6.375 4.37011 6.12509 3.76571 5.67969 3.32031C5.23429 2.87491 4.62989 2.625 4 2.625H2.875V2.6123C2.75582 2.58797 2.64491 2.52968 2.55762 2.44238C2.44041 2.32517 2.375 2.16576 2.375 2C2.375 1.83424 2.44041 1.67483 2.55762 1.55762C2.64491 1.47032 2.75582 1.41203 2.875 1.3877V1.375H4.125Z" fill="white" stroke="white" stroke-width="0.25"/>
</svg>
