<svg width="152" height="44" viewBox="0 0 152 44" fill="none" xmlns="http://www.w3.org/2000/svg">
<path d="M6.82448 15.225V11.658H15.2925C16.5878 11.658 17.5932 11.2907 18.3085 10.556C19.0432 9.82134 19.4105 8.85467 19.4105 7.65601C19.4105 6.43801 19.0432 5.47134 18.3085 4.75601C17.5932 4.04067 16.5878 3.68301 15.2925 3.68301H4.12748V21.083H0.473484V6.13928e-06H15.2925C16.5105 6.13928e-06 17.5932 0.183673 18.5405 0.551008C19.5072 0.899007 20.3192 1.40167 20.9765 2.05901C21.6338 2.69701 22.1365 3.48001 22.4845 4.40801C22.8325 5.33601 23.0065 6.38001 23.0065 7.54001C23.0065 8.68067 22.8325 9.72467 22.4845 10.672C22.1365 11.6 21.6338 12.4023 20.9765 13.079C20.3192 13.7557 19.5072 14.2873 18.5405 14.674C17.5932 15.0413 16.5105 15.225 15.2925 15.225H6.82448ZM45.1969 21.083L39.8609 15.225H31.9729V11.977H40.7599C42.0939 11.977 43.0993 11.6193 43.7759 10.904C44.4526 10.1693 44.7909 9.11567 44.7909 7.74301C44.7909 6.37034 44.4333 5.35534 43.7179 4.69801C43.0219 4.02134 42.0359 3.68301 40.7599 3.68301H29.2759V21.083H25.6219V6.13928e-06H40.7599C41.9586 6.13928e-06 43.0316 0.183673 43.9789 0.551008C44.9263 0.899007 45.7286 1.41134 46.3859 2.08801C47.0433 2.74534 47.5459 3.54767 47.8939 4.49501C48.2419 5.44234 48.4159 6.50567 48.4159 7.68501C48.4159 9.44434 48.0293 10.9233 47.2559 12.122C46.5019 13.3013 45.4386 14.152 44.0659 14.674L50.4169 21.083H45.1969ZM52.328 21.083V6.13928e-06H71.149V3.68301H55.982V17.4H71.178V21.083H52.328ZM58.679 11.919V8.81601H70.366V11.919H58.679ZM83.9609 21.083C82.4915 21.083 81.1285 20.8123 79.8719 20.271C78.6345 19.7103 77.5519 18.9563 76.6239 18.009C75.7152 17.0423 74.9999 15.9017 74.4779 14.587C73.9752 13.2723 73.7239 11.8513 73.7239 10.324C73.7239 8.77734 73.9752 7.36601 74.4779 6.09001C74.9999 4.81401 75.7152 3.73134 76.6239 2.84201C77.5519 1.93334 78.6345 1.23734 79.8719 0.754007C81.1285 0.25134 82.4915 6.13928e-06 83.9609 6.13928e-06H95.3869V3.68301H83.9609C83.0135 3.68301 82.1339 3.85701 81.3219 4.20501C80.5292 4.53367 79.8429 4.99767 79.2629 5.59701C78.6829 6.19634 78.2285 6.91167 77.8999 7.74301C77.5712 8.57434 77.4069 9.49267 77.4069 10.498C77.4069 11.484 77.5712 12.4023 77.8999 13.253C78.2285 14.1037 78.6829 14.8383 79.2629 15.457C79.8429 16.0563 80.5292 16.53 81.3219 16.878C82.1339 17.226 83.0135 17.4 83.9609 17.4H95.3869V21.083H83.9609ZM98.5798 21.083V6.13928e-06H102.263V21.083H98.5798ZM106.108 21.083V17.4H121.913C122.899 17.4 123.653 17.1487 124.175 16.646C124.717 16.1433 124.987 15.4763 124.987 14.645C124.987 13.7363 124.717 13.0597 124.175 12.615C123.653 12.151 122.899 11.919 121.913 11.919H112.227C111.241 11.919 110.342 11.774 109.53 11.484C108.738 11.1747 108.061 10.759 107.5 10.237C106.959 9.69567 106.534 9.05767 106.224 8.32301C105.934 7.58834 105.789 6.78601 105.789 5.91601C105.789 5.06534 105.925 4.28234 106.195 3.56701C106.485 2.83234 106.901 2.20401 107.442 1.68201C108.003 1.16001 108.689 0.754007 109.501 0.464007C110.313 0.154673 111.241 6.13928e-06 112.285 6.13928e-06H127.423V3.68301H112.285C111.435 3.68301 110.777 3.91501 110.313 4.37901C109.849 4.82367 109.617 5.45201 109.617 6.26401C109.617 7.07601 109.849 7.70434 110.313 8.14901C110.797 8.59367 111.444 8.81601 112.256 8.81601H121.913C124.059 8.81601 125.683 9.31867 126.785 10.324C127.907 11.3293 128.467 12.8567 128.467 14.906C128.467 15.7953 128.332 16.617 128.061 17.371C127.791 18.125 127.385 18.7823 126.843 19.343C126.302 19.8843 125.616 20.3097 124.784 20.619C123.972 20.9283 123.015 21.083 121.913 21.083H106.108ZM131.625 21.083V6.13928e-06H150.446V3.68301H135.279V17.4H150.475V21.083H131.625ZM137.976 11.919V8.81601H149.663V11.919H137.976Z" fill="black"/>
<path d="M0.00085938 43.083V31.451H2.03286V43.083H0.00085938ZM6.04248 34.571V43.083H4.10648V32.523C4.10648 32.1497 4.19715 31.8563 4.37848 31.643C4.57048 31.419 4.82648 31.307 5.14648 31.307C5.29582 31.307 5.43982 31.339 5.57848 31.403C5.71715 31.467 5.86115 31.5737 6.01048 31.723L14.2185 39.867V31.355H16.1545V42.011C16.1545 42.395 16.0585 42.6937 15.8665 42.907C15.6852 43.1203 15.4452 43.227 15.1465 43.227C14.8158 43.227 14.5065 43.083 14.2185 42.795L6.04248 34.571ZM18.1232 43.083V31.451H27.9952V33.483H20.1392V43.083H18.1232ZM21.6272 38.267V36.491H27.5152V38.267H21.6272ZM40.2045 43.083L37.2605 39.851H32.9085V38.059H37.7565C38.4925 38.059 39.0472 37.8617 39.4205 37.467C39.7938 37.0617 39.9805 36.4803 39.9805 35.723C39.9805 34.9657 39.7832 34.4057 39.3885 34.043C39.0045 33.6697 38.4605 33.483 37.7565 33.483H31.4205V43.083H29.4045V31.451H37.7565C38.4178 31.451 39.0098 31.5523 39.5325 31.755C40.0552 31.947 40.4978 32.2297 40.8605 32.603C41.2232 32.9657 41.5005 33.4083 41.6925 33.931C41.8845 34.4537 41.9805 35.0403 41.9805 35.691C41.9805 36.6617 41.7672 37.4777 41.3405 38.139C40.9245 38.7897 40.3378 39.259 39.5805 39.547L43.0845 43.083H40.2045ZM56.2669 43.083L54.5229 40.155H49.0189L49.9789 38.507H53.5469L50.9549 34.155L45.6749 43.083H43.3549L50.0429 31.947C50.1602 31.7443 50.2989 31.5843 50.4589 31.467C50.6189 31.3497 50.8109 31.291 51.0349 31.291C51.2589 31.291 51.4455 31.3497 51.5949 31.467C51.7549 31.5843 51.8935 31.7443 52.0109 31.947L58.7149 43.083H56.2669ZM61.6325 43.083V33.483H57.2165V31.451H68.0805V33.483H63.6645V43.083H61.6325ZM80.2201 43.083L77.2761 39.851H72.9241V38.059H77.7721C78.5081 38.059 79.0628 37.8617 79.4361 37.467C79.8094 37.0617 79.9961 36.4803 79.9961 35.723C79.9961 34.9657 79.7988 34.4057 79.4041 34.043C79.0201 33.6697 78.4761 33.483 77.7721 33.483H71.4361V43.083H69.4201V31.451H77.7721C78.4334 31.451 79.0254 31.5523 79.5481 31.755C80.0708 31.947 80.5134 32.2297 80.8761 32.603C81.2388 32.9657 81.5161 33.4083 81.7081 33.931C81.9001 34.4537 81.9961 35.0403 81.9961 35.691C81.9961 36.6617 81.7828 37.4777 81.3561 38.139C80.9401 38.7897 80.3534 39.259 79.5961 39.547L83.1001 43.083H80.2201ZM96.2825 43.083L94.5385 40.155H89.0345L89.9945 38.507H93.5625L90.9705 34.155L85.6905 43.083H83.3705L90.0585 31.947C90.1758 31.7443 90.3145 31.5843 90.4745 31.467C90.6345 31.3497 90.8265 31.291 91.0505 31.291C91.2745 31.291 91.4612 31.3497 91.6105 31.467C91.7705 31.5843 91.9092 31.7443 92.0265 31.947L98.7305 43.083H96.2825ZM103.748 43.083C102.937 43.083 102.185 42.9337 101.492 42.635C100.809 42.3257 100.212 41.9097 99.6997 41.387C99.1984 40.8537 98.8037 40.2243 98.5157 39.499C98.2384 38.7737 98.0997 37.9897 98.0997 37.147C98.0997 36.2937 98.2384 35.515 98.5157 34.811C98.8037 34.107 99.1984 33.5097 99.6997 33.019C100.212 32.5177 100.809 32.1337 101.492 31.867C102.185 31.5897 102.937 31.451 103.748 31.451H110.052V33.483H103.748C103.225 33.483 102.74 33.579 102.292 33.771C101.854 33.9523 101.476 34.2083 101.156 34.539C100.836 34.8697 100.585 35.2643 100.404 35.723C100.222 36.1817 100.132 36.6883 100.132 37.243C100.132 37.787 100.222 38.2937 100.404 38.763C100.585 39.2323 100.836 39.6377 101.156 39.979C101.476 40.3097 101.854 40.571 102.292 40.763C102.74 40.955 103.225 41.051 103.748 41.051H110.052V43.083H103.748ZM121.285 43.083L114.773 37.963C114.592 37.8243 114.475 37.691 114.421 37.563C114.379 37.4243 114.357 37.275 114.357 37.115C114.357 36.9337 114.389 36.7737 114.453 36.635C114.517 36.4963 114.656 36.347 114.869 36.187L121.029 31.451H124.149L116.533 37.131L124.389 43.083H121.285ZM111.701 43.083V31.451H113.733V43.083H111.701ZM125.701 43.083V31.451H136.085V33.483H127.717V41.051H136.101V43.083H125.701ZM129.205 38.027V36.315H135.653V38.027H129.205ZM148.642 43.083L145.698 39.851H141.346V38.059H146.194C146.93 38.059 147.485 37.8617 147.858 37.467C148.231 37.0617 148.418 36.4803 148.418 35.723C148.418 34.9657 148.221 34.4057 147.826 34.043C147.442 33.6697 146.898 33.483 146.194 33.483H139.858V43.083H137.842V31.451H146.194C146.855 31.451 147.447 31.5523 147.97 31.755C148.493 31.947 148.935 32.2297 149.298 32.603C149.661 32.9657 149.938 33.4083 150.13 33.931C150.322 34.4537 150.418 35.0403 150.418 35.691C150.418 36.6617 150.205 37.4777 149.778 38.139C149.362 38.7897 148.775 39.259 148.018 39.547L151.522 43.083H148.642Z" fill="#FF6F00"/>
</svg>
